# xmcd CD database file
# Copyright (C) 1993-1998 Ti Kan
#
# Track frame offsets:
#  150
#  21677
#  39367
#  49547
#  60050
#  66235
#  81005
#  98897
#  112835
#  123482
#  128627
#  136752
#  144460
#  162745
#  178837
#  184582
#  198859
#
# Disc length: 2877 seconds
#
# Revision: 1
# Processed by: cddbd v1.4b41PL1 Copyright (c) Steve Scherf et al.
# Submitted via: CDWizzard Release:4.35
#
DISCID=e40b3b11
DTITLE=T.G. Sheppard - Live
DYEAR=1900
DGENRE=
TTITLE0=Smokey Mountain Rain
TTITLE1=Slow Burn
TTITLE2=Only One You
TTITLE3=Fly Me To The Moon
TTITLE4=I Wanna Be Around
TTITLE5=For The Good Times
TTITLE6=San Antonio Rose
TTITLE7=Can't Help Falling In Love
TTITLE8=I Loved 'Em Every One
TTITLE9=Last Cheater's Waltz
TTITLE10=Do You Wanna Go To Heaven
TTITLE11=Half Past Forever
TTITLE12=One For The Money
TTITLE13=Fooled Around and Fell In Love
TTITLE14=Tun Your Radio On
TTITLE15=Mr. D.J.
TTITLE16=Patriotic Medley
EXTD=
EXTT0=
EXTT1=
EXTT2=
EXTT3=
EXTT4=
EXTT5=
EXTT6=
EXTT7=
EXTT8=
EXTT9=
EXTT10=
EXTT11=
EXTT12=
EXTT13=
EXTT14=
EXTT15=
EXTT16=
PLAYORDER=
